<svg xmlns="http://www.w3.org/2000/svg" width="576.978" height="170.279" viewBox="0 0 576.978 170.279">
    <g>
        <g>
            <path fill="#dc3223" d="M245.425 30.325l-2.525 2.71a21.364 21.364 0 0 1 .86 21.66l1.384-.024a23.524 23.524 0 0 0 .281-24.346zm-11.078 1.557l1.373-1.46a17.98 17.98 0 0 0-24.841.608 17.213 17.213 0 0 0-4.908 14.731l1.379-.043a13.579 13.579 0 1 1 13.965 13.466 13.709 13.709 0 0 1-9.7-3.652l-1.95 2.022a21.112 21.112 0 0 1-.806-30.145 21.875 21.875 0 0 1 24.972-4.618l.107.122 1.055-1.188a27.054 27.054 0 0 0-33.02 4.74 26.54 26.54 0 0 0 1.021 37.962l1.972-2.03a20.707 20.707 0 0 0 15.188 5.832 21.24 21.24 0 0 0 20.84-21.6 20.835 20.835 0 0 0-6.646-14.747z" transform="translate(-8.178 -39.113) translate(169 39.113) translate(-39.78 -18.114)"/>
            <path fill="#1e3246" d="M82.82 23.02h-9.931v40.692h28.129v-7.9H82.82V23.02zm-44.221 0L23.185 63.712H32.8c1.75-6.046 9.375-10.612 16.474-11.252l-1.463-3.683a21.733 21.733 0 0 0-10.034 1.253l6.5-17.216 12.593 30.9h9.6L49.883 23.02zm100.03 7.88h13.234v32.812h10.175V30.9h13.3v-7.881h-36.709V30.9zm131.717-7.88l-11.627 15.465L247.26 23.02h-8.927v40.692h10.174V38.849L258.035 52h1.451L269 38.849v24.863h10.186V23.02zM114.228 33.459c0-3.27 7.342-6.119 18.794-1.961l.666-8.034a33.638 33.638 0 0 0-10.863-2.164c-8.342 0-17.8 3.1-17.8 13.216 0 15.161 22.389 9.975 21.75 18.25-.249 3.213-4.989 3.993-8.992 3.993a27.4 27.4 0 0 1-11.411-2.246l-.95 8.729a42.968 42.968 0 0 0 12.361 1.8c9.228 0 18.241-2.939 18.279-13.816.018-14.538-21.834-10.308-21.834-17.767z" transform="translate(-8.178 -39.113) translate(169 39.113) translate(-23.185 -18.392)"/>
        </g>
        <path fill="#333" d="M-249.084-30.858h-22.94l2.442-11.618h23.976l1.85-8.51h-34.262L-288.822 0h35.15l3.034-8.584h-26.122l2.886-13.69h22.94zM-249.38 0h22.866c11.914 0 19.98-5.624 19.98-15.91a11.032 11.032 0 0 0-6.512-10.064 12.513 12.513 0 0 0 9.028-12.358c0-7.178-4.884-12.654-15.1-12.654h-19.462zm15.022-22.57h8.288c6.216 0 8.584 2.442 8.584 6.586 0 5.328-4.218 7.918-9.842 7.918h-10.064zm1.7-8.14l2.59-12.21h8.51c3.4 0 6.882 1.036 6.882 5.55 0 4.81-3.922 6.66-9.1 6.66zm37.814-20.276L-205.646 0h10.434l10.8-50.986zm21.756 36.038h11.1q1.7 7.4 10.73 7.4 8.436 0 8.436-6.068a5.584 5.584 0 0 0-2.331-4.847q-2.331-1.665-8.843-3.145-9.842-2.294-13.579-5.957a12.453 12.453 0 0 1-3.737-9.287 13.291 13.291 0 0 1 4.921-10.841q4.921-4.033 13.8-4.033 9.472 0 14.282 4.218A15.442 15.442 0 0 1-132.9-37H-144a8.212 8.212 0 0 0-2.479-4.773q-1.961-1.813-6.4-1.813-7.178 0-7.178 5.476a4.591 4.591 0 0 0 2.109 4.07q2.109 1.406 8.325 2.812 10.434 2.516 14.245 6.4a13.523 13.523 0 0 1 3.811 9.879 13.9 13.9 0 0 1-5.328 11.4Q-142.228.74-152.07.74q-9.4 0-14.763-4.218a16.519 16.519 0 0 1-6.253-11.47zm78.958-1.924h-25.308a11.155 11.155 0 0 0 2 6.7 6.6 6.6 0 0 0 5.7 2.775 7.773 7.773 0 0 0 4.44-1 7.047 7.047 0 0 0 2.294-3.071h10.582a17.969 17.969 0 0 1-1.665 3.959 20.082 20.082 0 0 1-3.034 3.922 13.809 13.809 0 0 1-5.291 3.256 21.825 21.825 0 0 1-7.55 1.219q-8.954 0-13.542-5.624a21.178 21.178 0 0 1-4.588-13.838q0-9.4 4.736-15.022t13.764-5.624a19.855 19.855 0 0 1 8.251 1.591 13.321 13.321 0 0 1 5.513 4.4 19.709 19.709 0 0 1 2.928 6.071 25.633 25.633 0 0 1 .925 7.03 26.6 26.6 0 0 1-.153 3.256zm-25.086-6.512h14.578q-.148-8.214-7.03-8.214-6.806-.002-7.546 8.214zM-90.872 0v-28.638q0-6.808-.074-9.694h10.286a38.523 38.523 0 0 1 .444 4.884q3.034-5.772 11.1-5.772a11.668 11.668 0 0 1 9.25 3.885q3.4 3.885 3.4 10.989V0h-10.578v-23.162q0-7.474-6.142-7.474a6.375 6.375 0 0 0-5.254 2.183q-1.776 2.183-1.776 7.141V0zm36.186-11.544h10.434q1.258 4.81 7.252 4.81 5.328 0 5.328-3.774a3.079 3.079 0 0 0-1.48-2.738 20.8 20.8 0 0 0-5.624-2q-8.732-2.146-11.618-4.995A9.9 9.9 0 0 1-53.28-27.6a10.717 10.717 0 0 1 3.737-8.214q3.737-3.4 11.729-3.4 7.918 0 11.766 3.478a11.659 11.659 0 0 1 4.148 8.06h-10.068q-1.036-4.07-6.29-4.07-4.662 0-4.662 3.256a2.6 2.6 0 0 0 1.443 2.331A26.061 26.061 0 0 0-35.52-24.2a44.736 44.736 0 0 1 7.659 2.442 12.388 12.388 0 0 1 4.477 3.071 9.885 9.885 0 0 1 2 3.4 13.7 13.7 0 0 1 .518 4.033 10.857 10.857 0 0 1-4.146 8.664Q-29.156.888-37.37.888t-12.4-3.4a13.452 13.452 0 0 1-4.916-9.032zm70.448-5.328H-9.546a11.155 11.155 0 0 0 2 6.7A6.6 6.6 0 0 0-1.85-7.4a7.773 7.773 0 0 0 4.44-1 7.047 7.047 0 0 0 2.294-3.07h10.582A17.969 17.969 0 0 1 13.8-7.511a20.082 20.082 0 0 1-3.034 3.922 13.809 13.809 0 0 1-5.29 3.256A21.825 21.825 0 0 1-2.072.888q-8.954 0-13.542-5.624A21.178 21.178 0 0 1-20.2-18.574q0-9.4 4.736-15.022T-1.7-39.22a19.855 19.855 0 0 1 8.251 1.591 13.321 13.321 0 0 1 5.513 4.4 19.709 19.709 0 0 1 2.923 6.068 25.633 25.633 0 0 1 .925 7.03 26.6 26.6 0 0 1-.15 3.259zm-25.086-6.512H5.254Q5.106-31.6-1.776-31.6q-6.808 0-7.548 8.216zM53.206 0H41.81L28.786-50.986h11.766q6.956 33.818 7.548 39.442h.074q1.11-5.4 4.995-20.387t4.847-19.055h9.916Q75.11-24.568 77.4-12.062h.074q.592-3.922 1.85-10.027t2.257-10.4q1-4.292 2.59-10.952t1.813-7.548h10.66L82.88 0H71.41q-.962-4.07-4.44-17.834t-4.514-18.722h-.074Q60.606-27.75 53.206 0zm72.668-25.974v16.058q0 7.844.518 9.916h-10.138a10.812 10.812 0 0 1-.518-3.774Q112.7.888 104.932.888q-6.512 0-9.805-3.515a11.951 11.951 0 0 1-3.293-8.473q0-6.364 4.773-9.583t13.431-3.217h5.476v-2.3q0-5.4-5.92-5.4-3.108 0-4.329 1.147a5.927 5.927 0 0 0-1.591 3.515H93.61q.962-12.284 16.428-12.284 15.836.15 15.836 13.248zm-10.36 9.546v-1.036h-4.292q-4.662 0-6.734 1.406a4.832 4.832 0 0 0-2.072 4.292 5.033 5.033 0 0 0 1.406 3.666 5.532 5.532 0 0 0 4.144 1.443q4.588 0 6.068-2.59a14.546 14.546 0 0 0 1.48-7.181zm10.582-21.9h11.4q7.4 24.938 7.992 28.564h.074q1.184-5.4 7.622-28.564h10.582L150.886 1.11q-2.738 8.436-5.92 11.359t-9.99 2.923a41.168 41.168 0 0 1-4.958-.3V6.586q1.48.148 2.738.148a7.519 7.519 0 0 0 4.588-1.221 9.106 9.106 0 0 0 2.738-4.329zm35.816 26.788h10.434q1.258 4.81 7.252 4.81 5.328 0 5.328-3.774a3.079 3.079 0 0 0-1.48-2.738 20.8 20.8 0 0 0-5.624-2q-8.732-2.148-11.622-4.997a9.9 9.9 0 0 1-2.886-7.363 10.717 10.717 0 0 1 3.737-8.214q3.737-3.4 11.729-3.4 7.918 0 11.766 3.478a11.659 11.659 0 0 1 4.144 8.066h-10.06q-1.036-4.07-6.29-4.07-4.662 0-4.662 3.256a2.6 2.6 0 0 0 1.443 2.331 26.061 26.061 0 0 0 5.957 1.961 44.736 44.736 0 0 1 7.659 2.442 12.388 12.388 0 0 1 4.477 3.071 9.885 9.885 0 0 1 2 3.4 13.7 13.7 0 0 1 .518 4.033 10.857 10.857 0 0 1-4.144 8.658Q187.442.888 179.228.888t-12.4-3.4a13.452 13.452 0 0 1-4.916-9.032zM198.32 0v-38.332h10.656V0zm10.656-44.548H198.32v-9.472h10.656zm29.674-9.472h10.582v43.512q0 7.03.074 10.508h-10.138a29.239 29.239 0 0 1-.518-4Q235.69.888 227.772.888a14.016 14.016 0 0 1-11.544-5.365q-4.292-5.365-4.292-14.393t4.7-14.689a15.634 15.634 0 0 1 12.691-5.661 14.761 14.761 0 0 1 6.216 1.11 6.244 6.244 0 0 1 3.108 2.59zm-15.836 34.928q0 5.624 2.109 8.547a6.988 6.988 0 0 0 6.031 2.923 8.634 8.634 0 0 0 4.292-.962 5.834 5.834 0 0 0 2.516-2.812 14.038 14.038 0 0 0 1.073-3.626 29.075 29.075 0 0 0 .259-4.144q0-5.7-1.554-8.621t-6.364-2.923a7.141 7.141 0 0 0-6.216 3.034q-2.146 3.034-2.146 8.584zm65.194 2.22H262.7a11.155 11.155 0 0 0 2 6.7 6.6 6.6 0 0 0 5.7 2.772 7.773 7.773 0 0 0 4.44-1 7.048 7.048 0 0 0 2.294-3.071h10.582a17.969 17.969 0 0 1-1.665 3.959 20.081 20.081 0 0 1-3.034 3.922 13.809 13.809 0 0 1-5.291 3.256 21.825 21.825 0 0 1-7.552 1.222q-8.954 0-13.542-5.624a21.178 21.178 0 0 1-4.588-13.838q0-9.4 4.736-15.022t13.764-5.624a19.856 19.856 0 0 1 8.251 1.591 13.321 13.321 0 0 1 5.513 4.4 19.709 19.709 0 0 1 2.923 6.068 25.633 25.633 0 0 1 .925 7.03 26.6 26.6 0 0 1-.148 3.259zm-25.086-6.512H277.5q-.148-8.214-7.03-8.214-6.808-.002-7.548 8.214z" transform="translate(-8.178 -39.113) translate(297 194)"/>
    </g>
</svg>
