<?xml version="1.0" encoding="UTF-8"?>
<svg width="291px" height="97px" viewBox="0 0 291 97" version="1.1" xmlns="http://www.w3.org/2000/svg" xmlns:xlink="http://www.w3.org/1999/xlink">
    <g id="Page-2" stroke="none" stroke-width="1" fill="none" fill-rule="evenodd">
        <g id="Group-2">
            <g id="Group" transform="translate(16.000000, 0.000000)" fill-rule="nonzero">
                <path d="M206.467,12.211 L203.942,14.921 C208.142273,21.4486388 208.471513,29.7408951 204.802,36.581 L206.186,36.557 C210.798738,29.1250575 210.906974,19.7474284 206.467,12.211 L206.467,12.211 Z M195.389,13.768 L196.762,12.308 C189.651114,5.83590789 178.706743,6.10377866 171.921,12.916 C168.037432,16.767645 166.21559,22.2357703 167.013,27.647 L168.392,27.604 C168.332916,20.1410492 174.307717,14.0291694 181.770088,13.9189796 C189.232459,13.8087898 195.385112,19.741595 195.546403,27.2030366 C195.707694,34.6644782 189.817162,40.8576158 182.357,41.07 C178.770339,41.1689527 175.287831,39.8578067 172.657,37.418 L170.707,39.44 C166.550815,35.5789262 164.123366,30.2076788 163.971742,24.5368083 C163.820117,18.8659379 165.957076,13.3726499 169.901,9.295 C176.387933,2.5868364 186.416075,0.73236106 194.873,4.677 L194.98,4.799 L196.035,3.611 C185.247913,-2.59015452 171.622099,-0.634177539 163.015,8.351 C158.03714,13.4807755 155.338937,20.4016108 155.531115,27.5470115 C155.723293,34.6924122 158.789602,41.4582091 164.036,46.313 L166.008,44.283 C170.062966,48.2177135 175.54969,50.3245462 181.196,50.115 C192.911526,49.8960482 202.236649,40.2308535 202.036,28.515 C201.897093,22.9048942 199.500954,17.5880319 195.39,13.768 L195.389,13.768 Z" id="Shape" fill="#DC3223"></path>
                <path d="M60.457,4.628 L50.526,4.628 L50.526,45.32 L78.655,45.32 L78.655,37.42 L60.457,37.42 L60.457,4.628 Z M16.236,4.628 L0.822,45.32 L10.437,45.32 C12.187,39.274 19.812,34.708 26.911,34.068 L25.448,30.385 C22.051338,30.0079309 18.613627,30.4372165 15.414,31.638 L21.914,14.422 L34.507,45.322 L44.107,45.322 L27.52,4.628 L16.236,4.628 Z M116.266,12.508 L129.5,12.508 L129.5,45.32 L139.675,45.32 L139.675,12.508 L152.975,12.508 L152.975,4.627 L116.266,4.627 L116.266,12.508 L116.266,12.508 Z M247.983,4.628 L236.356,20.093 L224.897,4.628 L215.97,4.628 L215.97,45.32 L226.144,45.32 L226.144,20.457 L235.672,33.608 L237.123,33.608 L246.637,20.457 L246.637,45.32 L256.823,45.32 L256.823,4.628 L247.983,4.628 Z M91.865,15.067 C91.865,11.797 99.207,8.948 110.659,13.106 L111.325,5.072 C107.848454,3.75535836 104.177701,3.02411366 100.462,2.908 C92.12,2.908 82.662,6.008 82.662,16.124 C82.662,31.285 105.051,26.099 104.412,34.374 C104.163,37.587 99.423,38.367 95.42,38.367 C91.4994383,38.4434922 87.6081289,37.6775751 84.009,36.121 L83.059,44.85 C87.0696565,46.0489121 91.2339842,46.6553185 95.42,46.6500347 C104.648,46.6500347 113.661,43.711 113.699011,32.834 C113.717,18.296 91.865,22.526 91.865,15.067 L91.865,15.067 Z" id="Shape" fill="#1E3246"></path>
            </g>
            <text id="EBI-Sense-Onboard" font-family="Helvetica-BoldOblique, Helvetica" font-size="32" font-weight="bold" letter-spacing="-0.479999989" fill="#000000">
                <tspan font-style="italic" x="0" y="90">EBI</tspan>
                <tspan x="60" y="90" font-family="Helvetica-Bold, Helvetica"> Sense Onboard</tspan>
            </text>
        </g>
    </g>
</svg>
